<svg width="480" height="480" viewBox="0 0 480 480" fill="none" xmlns="http://www.w3.org/2000/svg">
<g opacity="0.9">
<g clip-path="url(#clip0)">
<g opacity="0.78">
<path d="M296.071 473.079C288.835 474.71 259.835 373.405 231.299 246.811C202.763 120.217 185.495 16.2679 192.731 14.6372" stroke="#EDF8FF" stroke-width="1.5"/>
<path d="M260.085 478.32C225.523 480.624 190.492 377.522 181.843 248.038C173.194 118.554 194.203 11.7161 228.765 9.41183" stroke="#EDF8FF" stroke-width="1.5"/>
<path d="M219.454 477.479C160.222 471.15 123.427 361.407 137.267 232.363C151.108 103.319 210.345 3.83667 269.575 10.165" stroke="#EDF8FF" stroke-width="1.5"/>
<path d="M170.29 466.797C94.0994 441.49 65.5445 321.145 106.51 198.001C147.475 74.857 242.448 -4.45714 318.639 20.8502" stroke="#EDF8FF" stroke-width="1.5"/>
<path d="M110.954 437.223C32.2824 382.976 28.2601 252.412 101.97 145.603C175.681 38.7953 299.212 -3.81555 377.885 50.433" stroke="#EDF8FF" stroke-width="1.5"/>
<path d="M48.9986 374.309C-8.96472 287.554 31.5358 158.807 139.456 86.7458C247.377 14.6842 381.853 26.5939 439.817 113.349" stroke="#EDF8FF" stroke-width="1.5"/>
<path d="M11.7651 276.762C-3.10002 171.794 89.0081 71.9561 217.492 53.7693C345.976 35.5824 462.185 105.933 477.051 210.901" stroke="#EDF8FF" stroke-width="1.5"/>
<path d="M18.501 179.334C46.1158 82.6208 169.661 33.1421 294.445 68.8203C419.228 104.499 498.001 211.824 470.386 308.538" stroke="#EDF8FF" stroke-width="1.5"/>
<path d="M51.0334 110.435C101.069 37.8658 228.217 38.7924 335.025 112.502C441.834 186.212 487.859 304.795 437.823 377.364" stroke="#EDF8FF" stroke-width="1.5"/>
<path d="M88.6965 67.929C140.9 21.6877 252.941 62.9816 338.946 160.159C424.951 257.337 452.354 373.602 400.151 419.843" stroke="#EDF8FF" stroke-width="1.5"/>
<path d="M124.684 41.6953C164.763 17.9376 250.859 89.1981 316.985 200.857C383.111 312.515 404.227 422.294 364.15 446.05" stroke="#EDF8FF" stroke-width="1.5"/>
<path d="M158.807 25.0383C177.69 17.6453 231.321 109.625 278.596 230.478C325.87 351.331 348.887 455.296 330.005 462.689" stroke="#EDF8FF" stroke-width="1.5"/>
<path d="M455.542 140.819C488.196 207.687 416.641 295.016 295.717 335.873C174.794 376.73 50.3033 355.641 17.648 288.773C13.263 279.794 10.698 270.232 10.0002 260.264" stroke="#EDF8FF" stroke-width="1.5"/>
<path d="M431.621 101.919C476.597 161.21 422.338 247.109 310.43 293.783C198.522 340.457 71.3392 330.227 26.3629 270.935C13.8468 254.436 8.67722 235.164 11.2556 214.618" stroke="#EDF8FF" stroke-width="1.5"/>
<path d="M399.579 67.4517C455.471 116.594 421.175 197.629 322.975 248.448C224.776 299.266 99.8598 300.626 43.9571 251.487C19.0673 229.603 11.1654 200.147 21.762 168.749" stroke="#EDF8FF" stroke-width="1.5"/>
<path d="M358.803 38.6439C423.817 74.8729 412.187 147.198 332.824 200.186C253.462 253.175 136.42 266.761 71.3997 230.534C28.4903 206.624 17.4792 165.577 42.6624 123.41" stroke="#EDF8FF" stroke-width="1.5"/>
<path d="M306.448 17.2443C378.239 36.8884 392.882 95.4185 339.154 147.97C285.427 200.522 183.676 227.2 111.885 207.556C41.0787 188.181 25.7083 130.884 77.314 78.6848" stroke="#EDF8FF" stroke-width="1.5"/>
<path d="M471.313 182.996C504.927 308.318 430.582 437.163 305.26 470.778C179.939 504.392 51.0932 430.048 17.479 304.726C-16.1352 179.405 58.2098 50.5595 183.531 16.945C308.853 -16.6696 437.699 57.6749 471.313 182.996Z" stroke="#EDF8FF" stroke-width="1.5"/>
<path d="M340.056 458.483C317.756 468.422 293.153 475.014 268.871 477.558" stroke="#EDF8FF" stroke-width="1.5"/>
<path d="M411.471 409.081C359.139 461.998 257.682 489.796 184.859 471.167C184.005 470.948 183.158 470.724 182.316 470.494" stroke="#EDF8FF" stroke-width="1.5"/>
<path d="M446.107 364.365C407.945 428.251 299.8 475.03 204.557 468.849C175.468 466.961 149.8 460.168 129.944 449.102" stroke="#EDF8FF" stroke-width="1.5"/>
<path d="M467.008 319.029C443.209 389.533 334.368 450.836 223.896 455.957C166.974 458.594 117.974 445.627 89.1721 420.302" stroke="#EDF8FF" stroke-width="1.5"/>
<path d="M477.518 273.158C468.25 346.989 363.251 419.458 242.994 435.025C160.159 445.746 88.1204 426.682 57.1389 385.84" stroke="#EDF8FF" stroke-width="1.5"/>
<path d="M478.777 227.508C483.972 301.736 386.73 382.266 261.588 407.373C155.685 428.621 60.8594 403.527 33.228 346.943" stroke="#EDF8FF" stroke-width="1.5"/>
<path d="M471.337 183.046C490.616 254.917 404.634 340.421 279.292 374.022C153.95 407.623 36.7096 376.6 17.4299 304.727" stroke="#EDF8FF" stroke-width="1.5"/>
<path d="M219.903 10.1796C293.927 2.41199 346.855 33.3966 338.123 79.3835C329.39 125.37 262.305 168.949 188.281 176.716C114.258 184.483 61.3293 153.499 70.0619 107.512C75.6173 78.2545 105.481 48.5513 148.727 29.2664" stroke="#EDF8FF" stroke-width="1.5"/>
<path d="M303.037 50.5779C311.791 83.21 272.76 122.033 215.861 137.292C158.961 152.55 105.737 138.466 96.9833 105.834C88.2295 73.202 127.26 34.3787 184.16 19.1202C241.06 3.8618 294.284 17.9459 303.037 50.5779Z" stroke="#EDF8FF" stroke-width="1.5"/>
<path d="M267.15 48.2339C273.109 70.4458 246.542 96.8705 207.811 107.257C169.079 117.643 132.852 108.056 126.894 85.8453C120.936 63.6346 147.502 37.2087 186.233 26.8224C224.965 16.4361 261.192 26.0231 267.15 48.2339Z" stroke="#EDF8FF" stroke-width="1.5"/>
<path d="M230.695 50.7089C233.712 61.9539 220.263 75.3321 200.657 80.5896C181.052 85.847 162.712 80.9933 159.696 69.7484C156.679 58.5034 170.128 45.1252 189.733 39.8677C209.339 34.6103 227.679 39.464 230.695 50.7089Z" stroke="#EDF8FF" stroke-width="1.5"/>
</g>
</g>
</g>
<defs>
<clipPath id="clip0">
<rect width="480" height="480" fill="white"/>
</clipPath>
</defs>
</svg>
